<mxfile host="app.diagrams.net" modified="2023-07-27T09:22:26.572Z" agent="Mozilla/5.0 (Windows NT 10.0; Win64; x64) AppleWebKit/537.36 (KHTML, like Gecko) Chrome/115.0.0.0 Safari/537.36 Edg/115.0.1901.183" etag="Cw4n7bmoEOJaqqH_usEL" version="21.6.5" type="github">
  <diagram name="第 1 页" id="soLcNJ_fGtEE-Y68aGSs">
    <mxGraphModel dx="1166" dy="775" grid="1" gridSize="10" guides="1" tooltips="1" connect="1" arrows="1" fold="1" page="1" pageScale="1" pageWidth="827" pageHeight="1169" math="0" shadow="0">
      <root>
        <mxCell id="0" />
        <mxCell id="1" parent="0" />
        <mxCell id="ZiqQ36OBosInyVJzoxoW-1" value="LoanCaculator" style="swimlane;fontStyle=1;align=center;verticalAlign=top;childLayout=stackLayout;horizontal=1;startSize=26;horizontalStack=0;resizeParent=1;resizeParentMax=0;resizeLast=0;collapsible=1;marginBottom=0;whiteSpace=wrap;html=1;" vertex="1" parent="1">
          <mxGeometry x="290" y="410" width="400" height="80" as="geometry" />
        </mxCell>
        <mxCell id="ZiqQ36OBosInyVJzoxoW-3" value="" style="line;strokeWidth=1;fillColor=none;align=left;verticalAlign=middle;spacingTop=-1;spacingLeft=3;spacingRight=3;rotatable=0;labelPosition=right;points=[];portConstraint=eastwest;strokeColor=inherit;" vertex="1" parent="ZiqQ36OBosInyVJzoxoW-1">
          <mxGeometry y="26" width="400" height="24" as="geometry" />
        </mxCell>
        <mxCell id="ZiqQ36OBosInyVJzoxoW-4" value="+ caclLoanSchedule(BigDecimal amount, int term): List&amp;lt;LoanSchedule&amp;gt;" style="text;strokeColor=none;fillColor=none;align=left;verticalAlign=top;spacingLeft=4;spacingRight=4;overflow=hidden;rotatable=0;points=[[0,0.5],[1,0.5]];portConstraint=eastwest;whiteSpace=wrap;html=1;" vertex="1" parent="ZiqQ36OBosInyVJzoxoW-1">
          <mxGeometry y="50" width="400" height="30" as="geometry" />
        </mxCell>
        <mxCell id="ZiqQ36OBosInyVJzoxoW-13" value="LoanSchedule" style="swimlane;fontStyle=1;align=center;verticalAlign=top;childLayout=stackLayout;horizontal=1;startSize=26;horizontalStack=0;resizeParent=1;resizeParentMax=0;resizeLast=0;collapsible=1;marginBottom=0;whiteSpace=wrap;html=1;" vertex="1" parent="1">
          <mxGeometry x="40" y="250" width="160" height="164" as="geometry" />
        </mxCell>
        <mxCell id="ZiqQ36OBosInyVJzoxoW-14" value="- curTerm: int&lt;br&gt;- totalTerm: int&lt;br&gt;- acctNo: String&lt;br&gt;- curPrin: BigDecimal&lt;br&gt;- curInt: BigDecimal&lt;br&gt;- startDate: Date&lt;br&gt;- endDate: Date" style="text;strokeColor=none;fillColor=none;align=left;verticalAlign=top;spacingLeft=4;spacingRight=4;overflow=hidden;rotatable=0;points=[[0,0.5],[1,0.5]];portConstraint=eastwest;whiteSpace=wrap;html=1;" vertex="1" parent="ZiqQ36OBosInyVJzoxoW-13">
          <mxGeometry y="26" width="160" height="104" as="geometry" />
        </mxCell>
        <mxCell id="ZiqQ36OBosInyVJzoxoW-15" value="" style="line;strokeWidth=1;fillColor=none;align=left;verticalAlign=middle;spacingTop=-1;spacingLeft=3;spacingRight=3;rotatable=0;labelPosition=right;points=[];portConstraint=eastwest;strokeColor=inherit;" vertex="1" parent="ZiqQ36OBosInyVJzoxoW-13">
          <mxGeometry y="130" width="160" height="8" as="geometry" />
        </mxCell>
        <mxCell id="ZiqQ36OBosInyVJzoxoW-16" value="+ getCurTerm(): int&amp;nbsp;" style="text;strokeColor=none;fillColor=none;align=left;verticalAlign=top;spacingLeft=4;spacingRight=4;overflow=hidden;rotatable=0;points=[[0,0.5],[1,0.5]];portConstraint=eastwest;whiteSpace=wrap;html=1;" vertex="1" parent="ZiqQ36OBosInyVJzoxoW-13">
          <mxGeometry y="138" width="160" height="26" as="geometry" />
        </mxCell>
        <mxCell id="ZiqQ36OBosInyVJzoxoW-18" value="" style="endArrow=open;endFill=1;endSize=12;html=1;rounded=0;exitX=0;exitY=0;exitDx=0;exitDy=0;entryX=1;entryY=0.5;entryDx=0;entryDy=0;" edge="1" parent="1" source="ZiqQ36OBosInyVJzoxoW-1" target="ZiqQ36OBosInyVJzoxoW-16">
          <mxGeometry width="160" relative="1" as="geometry">
            <mxPoint x="386" y="559" as="sourcePoint" />
            <mxPoint x="421" y="600" as="targetPoint" />
          </mxGeometry>
        </mxCell>
        <mxCell id="ZiqQ36OBosInyVJzoxoW-22" value="" style="endArrow=diamondThin;endFill=1;endSize=24;html=1;rounded=0;exitX=0.495;exitY=0.989;exitDx=0;exitDy=0;exitPerimeter=0;" edge="1" parent="1" source="ZiqQ36OBosInyVJzoxoW-4">
          <mxGeometry width="160" relative="1" as="geometry">
            <mxPoint x="594" y="620" as="sourcePoint" />
            <mxPoint x="479.1662012287561" y="560" as="targetPoint" />
          </mxGeometry>
        </mxCell>
        <mxCell id="ZiqQ36OBosInyVJzoxoW-23" value="1" style="text;html=1;align=center;verticalAlign=middle;resizable=0;points=[];autosize=1;strokeColor=none;fillColor=none;" vertex="1" parent="1">
          <mxGeometry x="475" y="488" width="30" height="30" as="geometry" />
        </mxCell>
        <mxCell id="ZiqQ36OBosInyVJzoxoW-24" value="1" style="text;html=1;align=center;verticalAlign=middle;resizable=0;points=[];autosize=1;strokeColor=none;fillColor=none;" vertex="1" parent="1">
          <mxGeometry x="475" y="530" width="30" height="30" as="geometry" />
        </mxCell>
        <mxCell id="ZiqQ36OBosInyVJzoxoW-25" value="KeyDayCaculator" style="swimlane;fontStyle=1;align=center;verticalAlign=top;childLayout=stackLayout;horizontal=1;startSize=26;horizontalStack=0;resizeParent=1;resizeParentMax=0;resizeLast=0;collapsible=1;marginBottom=0;whiteSpace=wrap;html=1;" vertex="1" parent="1">
          <mxGeometry x="300" y="740" width="380" height="90" as="geometry" />
        </mxCell>
        <mxCell id="ZiqQ36OBosInyVJzoxoW-26" value="" style="line;strokeWidth=1;fillColor=none;align=left;verticalAlign=middle;spacingTop=-1;spacingLeft=3;spacingRight=3;rotatable=0;labelPosition=right;points=[];portConstraint=eastwest;strokeColor=inherit;" vertex="1" parent="ZiqQ36OBosInyVJzoxoW-25">
          <mxGeometry y="26" width="380" height="24" as="geometry" />
        </mxCell>
        <mxCell id="ZiqQ36OBosInyVJzoxoW-27" value="+ caclBillingCycle(String channelId, String acctNo): int&lt;br&gt;+ caclNextStmtDay(String acctNo): Date" style="text;strokeColor=none;fillColor=none;align=left;verticalAlign=top;spacingLeft=4;spacingRight=4;overflow=hidden;rotatable=0;points=[[0,0.5],[1,0.5]];portConstraint=eastwest;whiteSpace=wrap;html=1;" vertex="1" parent="ZiqQ36OBosInyVJzoxoW-25">
          <mxGeometry y="50" width="380" height="40" as="geometry" />
        </mxCell>
        <mxCell id="ZiqQ36OBosInyVJzoxoW-28" value="FirstBillDayCaculator" style="swimlane;fontStyle=1;align=center;verticalAlign=top;childLayout=stackLayout;horizontal=1;startSize=26;horizontalStack=0;resizeParent=1;resizeParentMax=0;resizeLast=0;collapsible=1;marginBottom=0;whiteSpace=wrap;html=1;" vertex="1" parent="1">
          <mxGeometry x="280" y="560" width="430" height="110" as="geometry" />
        </mxCell>
        <mxCell id="ZiqQ36OBosInyVJzoxoW-29" value="" style="line;strokeWidth=1;fillColor=none;align=left;verticalAlign=middle;spacingTop=-1;spacingLeft=3;spacingRight=3;rotatable=0;labelPosition=right;points=[];portConstraint=eastwest;strokeColor=inherit;" vertex="1" parent="ZiqQ36OBosInyVJzoxoW-28">
          <mxGeometry y="26" width="430" height="24" as="geometry" />
        </mxCell>
        <mxCell id="ZiqQ36OBosInyVJzoxoW-30" value="+ isFirstLoanAcct(LoanAccount acct): boolean&lt;br&gt;+ analyzeLoanConfig(String channelId, BigDecimal amount): CaculTypeEnum&lt;br&gt;+ caclFistBillDay(String billingCycle, String nextStmtDay, Enum type): Date" style="text;strokeColor=none;fillColor=none;align=left;verticalAlign=top;spacingLeft=4;spacingRight=4;overflow=hidden;rotatable=0;points=[[0,0.5],[1,0.5]];portConstraint=eastwest;whiteSpace=wrap;html=1;" vertex="1" parent="ZiqQ36OBosInyVJzoxoW-28">
          <mxGeometry y="50" width="430" height="60" as="geometry" />
        </mxCell>
        <mxCell id="ZiqQ36OBosInyVJzoxoW-31" value="LoanConfig" style="swimlane;fontStyle=1;align=center;verticalAlign=top;childLayout=stackLayout;horizontal=1;startSize=26;horizontalStack=0;resizeParent=1;resizeParentMax=0;resizeLast=0;collapsible=1;marginBottom=0;whiteSpace=wrap;html=1;" vertex="1" parent="1">
          <mxGeometry x="40" y="600" width="170" height="114" as="geometry" />
        </mxCell>
        <mxCell id="ZiqQ36OBosInyVJzoxoW-32" value="- loanAmount: BigDecimal&lt;br&gt;- channelId: String&lt;br&gt;- type: CaculTypeEnum" style="text;strokeColor=none;fillColor=none;align=left;verticalAlign=top;spacingLeft=4;spacingRight=4;overflow=hidden;rotatable=0;points=[[0,0.5],[1,0.5]];portConstraint=eastwest;whiteSpace=wrap;html=1;" vertex="1" parent="ZiqQ36OBosInyVJzoxoW-31">
          <mxGeometry y="26" width="170" height="54" as="geometry" />
        </mxCell>
        <mxCell id="ZiqQ36OBosInyVJzoxoW-33" value="" style="line;strokeWidth=1;fillColor=none;align=left;verticalAlign=middle;spacingTop=-1;spacingLeft=3;spacingRight=3;rotatable=0;labelPosition=right;points=[];portConstraint=eastwest;strokeColor=inherit;" vertex="1" parent="ZiqQ36OBosInyVJzoxoW-31">
          <mxGeometry y="80" width="170" height="8" as="geometry" />
        </mxCell>
        <mxCell id="ZiqQ36OBosInyVJzoxoW-34" value="+ getType(): CaculTypeEnum" style="text;strokeColor=none;fillColor=none;align=left;verticalAlign=top;spacingLeft=4;spacingRight=4;overflow=hidden;rotatable=0;points=[[0,0.5],[1,0.5]];portConstraint=eastwest;whiteSpace=wrap;html=1;" vertex="1" parent="ZiqQ36OBosInyVJzoxoW-31">
          <mxGeometry y="88" width="170" height="26" as="geometry" />
        </mxCell>
        <mxCell id="ZiqQ36OBosInyVJzoxoW-35" value="LoanAccount" style="swimlane;fontStyle=1;align=center;verticalAlign=top;childLayout=stackLayout;horizontal=1;startSize=26;horizontalStack=0;resizeParent=1;resizeParentMax=0;resizeLast=0;collapsible=1;marginBottom=0;whiteSpace=wrap;html=1;" vertex="1" parent="1">
          <mxGeometry x="40" y="450" width="160" height="124" as="geometry" />
        </mxCell>
        <mxCell id="ZiqQ36OBosInyVJzoxoW-36" value="- firstLoanDay: Date&lt;br&gt;- acctNo: String&lt;br&gt;- billingCycle: int&lt;br&gt;- nextStmtDay: Date" style="text;strokeColor=none;fillColor=none;align=left;verticalAlign=top;spacingLeft=4;spacingRight=4;overflow=hidden;rotatable=0;points=[[0,0.5],[1,0.5]];portConstraint=eastwest;whiteSpace=wrap;html=1;" vertex="1" parent="ZiqQ36OBosInyVJzoxoW-35">
          <mxGeometry y="26" width="160" height="64" as="geometry" />
        </mxCell>
        <mxCell id="ZiqQ36OBosInyVJzoxoW-37" value="" style="line;strokeWidth=1;fillColor=none;align=left;verticalAlign=middle;spacingTop=-1;spacingLeft=3;spacingRight=3;rotatable=0;labelPosition=right;points=[];portConstraint=eastwest;strokeColor=inherit;" vertex="1" parent="ZiqQ36OBosInyVJzoxoW-35">
          <mxGeometry y="90" width="160" height="8" as="geometry" />
        </mxCell>
        <mxCell id="ZiqQ36OBosInyVJzoxoW-38" value="+ getFistLoanDay(): Date" style="text;strokeColor=none;fillColor=none;align=left;verticalAlign=top;spacingLeft=4;spacingRight=4;overflow=hidden;rotatable=0;points=[[0,0.5],[1,0.5]];portConstraint=eastwest;whiteSpace=wrap;html=1;" vertex="1" parent="ZiqQ36OBosInyVJzoxoW-35">
          <mxGeometry y="98" width="160" height="26" as="geometry" />
        </mxCell>
        <mxCell id="ZiqQ36OBosInyVJzoxoW-39" value="&lt;b style=&quot;border-color: var(--border-color);&quot;&gt;&amp;lt;&amp;lt;enumeration&amp;gt;&amp;gt;&lt;br style=&quot;border-color: var(--border-color);&quot;&gt;CaculTypeEnum&lt;br&gt;&lt;/b&gt;" style="swimlane;fontStyle=1;align=center;verticalAlign=top;childLayout=stackLayout;horizontal=1;startSize=40;horizontalStack=0;resizeParent=1;resizeParentMax=0;resizeLast=0;collapsible=1;marginBottom=0;whiteSpace=wrap;html=1;" vertex="1" parent="1">
          <mxGeometry x="45" y="750" width="160" height="120" as="geometry" />
        </mxCell>
        <mxCell id="ZiqQ36OBosInyVJzoxoW-40" value="EnForceFullMonth&lt;br&gt;NextBillingDay&lt;br&gt;NextMonthBillingDay&lt;br&gt;MinDay" style="text;strokeColor=none;fillColor=none;align=left;verticalAlign=top;spacingLeft=4;spacingRight=4;overflow=hidden;rotatable=0;points=[[0,0.5],[1,0.5]];portConstraint=eastwest;whiteSpace=wrap;html=1;" vertex="1" parent="ZiqQ36OBosInyVJzoxoW-39">
          <mxGeometry y="40" width="160" height="60" as="geometry" />
        </mxCell>
        <mxCell id="ZiqQ36OBosInyVJzoxoW-41" value="" style="line;strokeWidth=1;fillColor=none;align=left;verticalAlign=middle;spacingTop=-1;spacingLeft=3;spacingRight=3;rotatable=0;labelPosition=right;points=[];portConstraint=eastwest;strokeColor=inherit;" vertex="1" parent="ZiqQ36OBosInyVJzoxoW-39">
          <mxGeometry y="100" width="160" height="20" as="geometry" />
        </mxCell>
        <mxCell id="ZiqQ36OBosInyVJzoxoW-42" value="&amp;lt;&amp;lt;interface&amp;gt;&amp;gt;&lt;br&gt;InterestCaculator" style="swimlane;fontStyle=1;align=center;verticalAlign=top;childLayout=stackLayout;horizontal=1;startSize=40;horizontalStack=0;resizeParent=1;resizeParentMax=0;resizeLast=0;collapsible=1;marginBottom=0;whiteSpace=wrap;html=1;" vertex="1" parent="1">
          <mxGeometry x="320" y="270" width="340" height="90" as="geometry" />
        </mxCell>
        <mxCell id="ZiqQ36OBosInyVJzoxoW-43" value="" style="line;strokeWidth=1;fillColor=none;align=left;verticalAlign=middle;spacingTop=-1;spacingLeft=3;spacingRight=3;rotatable=0;labelPosition=right;points=[];portConstraint=eastwest;strokeColor=inherit;" vertex="1" parent="ZiqQ36OBosInyVJzoxoW-42">
          <mxGeometry y="40" width="340" height="24" as="geometry" />
        </mxCell>
        <mxCell id="ZiqQ36OBosInyVJzoxoW-44" value="+ caculateInterest(BigDecimal amount, int term): BigDecimal" style="text;strokeColor=none;fillColor=none;align=left;verticalAlign=top;spacingLeft=4;spacingRight=4;overflow=hidden;rotatable=0;points=[[0,0.5],[1,0.5]];portConstraint=eastwest;whiteSpace=wrap;html=1;" vertex="1" parent="ZiqQ36OBosInyVJzoxoW-42">
          <mxGeometry y="64" width="340" height="26" as="geometry" />
        </mxCell>
        <mxCell id="ZiqQ36OBosInyVJzoxoW-45" value="" style="endArrow=diamondThin;endFill=1;endSize=24;html=1;rounded=0;entryX=0.514;entryY=0.936;entryDx=0;entryDy=0;exitX=0.5;exitY=0;exitDx=0;exitDy=0;entryPerimeter=0;" edge="1" parent="1" source="ZiqQ36OBosInyVJzoxoW-1" target="ZiqQ36OBosInyVJzoxoW-44">
          <mxGeometry width="160" relative="1" as="geometry">
            <mxPoint x="436" y="495" as="sourcePoint" />
            <mxPoint x="218.6" y="580" as="targetPoint" />
          </mxGeometry>
        </mxCell>
        <mxCell id="ZiqQ36OBosInyVJzoxoW-46" value="" style="endArrow=block;dashed=1;endFill=0;endSize=12;html=1;rounded=0;exitX=0.661;exitY=1.078;exitDx=0;exitDy=0;exitPerimeter=0;entryX=0;entryY=0;entryDx=0;entryDy=0;" edge="1" parent="1" source="ZiqQ36OBosInyVJzoxoW-50" target="ZiqQ36OBosInyVJzoxoW-42">
          <mxGeometry width="160" relative="1" as="geometry">
            <mxPoint x="165" y="320" as="sourcePoint" />
            <mxPoint x="230" y="230" as="targetPoint" />
          </mxGeometry>
        </mxCell>
        <mxCell id="ZiqQ36OBosInyVJzoxoW-48" value="EpclLoanCaculator" style="swimlane;fontStyle=1;align=center;verticalAlign=top;childLayout=stackLayout;horizontal=1;startSize=26;horizontalStack=0;resizeParent=1;resizeParentMax=0;resizeLast=0;collapsible=1;marginBottom=0;whiteSpace=wrap;html=1;" vertex="1" parent="1">
          <mxGeometry x="20" y="140" width="340" height="80" as="geometry" />
        </mxCell>
        <mxCell id="ZiqQ36OBosInyVJzoxoW-49" value="" style="line;strokeWidth=1;fillColor=none;align=left;verticalAlign=middle;spacingTop=-1;spacingLeft=3;spacingRight=3;rotatable=0;labelPosition=right;points=[];portConstraint=eastwest;strokeColor=inherit;" vertex="1" parent="ZiqQ36OBosInyVJzoxoW-48">
          <mxGeometry y="26" width="340" height="24" as="geometry" />
        </mxCell>
        <mxCell id="ZiqQ36OBosInyVJzoxoW-50" value="+ caculateInterest(BigDecimal amount, int term): BigDecimal" style="text;strokeColor=none;fillColor=none;align=left;verticalAlign=top;spacingLeft=4;spacingRight=4;overflow=hidden;rotatable=0;points=[[0,0.5],[1,0.5]];portConstraint=eastwest;whiteSpace=wrap;html=1;" vertex="1" parent="ZiqQ36OBosInyVJzoxoW-48">
          <mxGeometry y="50" width="340" height="30" as="geometry" />
        </mxCell>
        <mxCell id="ZiqQ36OBosInyVJzoxoW-51" value="EipiLoanCaculator" style="swimlane;fontStyle=1;align=center;verticalAlign=top;childLayout=stackLayout;horizontal=1;startSize=26;horizontalStack=0;resizeParent=1;resizeParentMax=0;resizeLast=0;collapsible=1;marginBottom=0;whiteSpace=wrap;html=1;" vertex="1" parent="1">
          <mxGeometry x="414" y="140" width="340" height="80" as="geometry" />
        </mxCell>
        <mxCell id="ZiqQ36OBosInyVJzoxoW-52" value="" style="line;strokeWidth=1;fillColor=none;align=left;verticalAlign=middle;spacingTop=-1;spacingLeft=3;spacingRight=3;rotatable=0;labelPosition=right;points=[];portConstraint=eastwest;strokeColor=inherit;" vertex="1" parent="ZiqQ36OBosInyVJzoxoW-51">
          <mxGeometry y="26" width="340" height="24" as="geometry" />
        </mxCell>
        <mxCell id="ZiqQ36OBosInyVJzoxoW-53" value="+ caculateInterest(BigDecimal amount, int term): BigDecimal" style="text;strokeColor=none;fillColor=none;align=left;verticalAlign=top;spacingLeft=4;spacingRight=4;overflow=hidden;rotatable=0;points=[[0,0.5],[1,0.5]];portConstraint=eastwest;whiteSpace=wrap;html=1;" vertex="1" parent="ZiqQ36OBosInyVJzoxoW-51">
          <mxGeometry y="50" width="340" height="30" as="geometry" />
        </mxCell>
        <mxCell id="ZiqQ36OBosInyVJzoxoW-54" value="" style="endArrow=block;dashed=1;endFill=0;endSize=12;html=1;rounded=0;exitX=0.467;exitY=1.056;exitDx=0;exitDy=0;exitPerimeter=0;entryX=0;entryY=0;entryDx=0;entryDy=0;" edge="1" parent="1" source="ZiqQ36OBosInyVJzoxoW-53">
          <mxGeometry width="160" relative="1" as="geometry">
            <mxPoint x="450" y="222" as="sourcePoint" />
            <mxPoint x="525" y="270" as="targetPoint" />
          </mxGeometry>
        </mxCell>
        <mxCell id="ZiqQ36OBosInyVJzoxoW-55" value="" style="endArrow=diamondThin;endFill=1;endSize=24;html=1;rounded=0;entryX=0.5;entryY=0;entryDx=0;entryDy=0;exitX=0.462;exitY=1.013;exitDx=0;exitDy=0;exitPerimeter=0;" edge="1" parent="1" source="ZiqQ36OBosInyVJzoxoW-30" target="ZiqQ36OBosInyVJzoxoW-25">
          <mxGeometry width="160" relative="1" as="geometry">
            <mxPoint x="590" y="740" as="sourcePoint" />
            <mxPoint x="595" y="688" as="targetPoint" />
          </mxGeometry>
        </mxCell>
        <mxCell id="ZiqQ36OBosInyVJzoxoW-56" value="" style="endArrow=open;endFill=1;endSize=12;html=1;rounded=0;exitX=0;exitY=0;exitDx=0;exitDy=0;entryX=1;entryY=0.5;entryDx=0;entryDy=0;" edge="1" parent="1" source="ZiqQ36OBosInyVJzoxoW-28">
          <mxGeometry width="160" relative="1" as="geometry">
            <mxPoint x="290" y="527" as="sourcePoint" />
            <mxPoint x="200" y="518" as="targetPoint" />
          </mxGeometry>
        </mxCell>
        <mxCell id="ZiqQ36OBosInyVJzoxoW-57" value="" style="endArrow=open;endFill=1;endSize=12;html=1;rounded=0;exitX=0;exitY=0.5;exitDx=0;exitDy=0;" edge="1" parent="1" source="ZiqQ36OBosInyVJzoxoW-30">
          <mxGeometry width="160" relative="1" as="geometry">
            <mxPoint x="300" y="702" as="sourcePoint" />
            <mxPoint x="210" y="710" as="targetPoint" />
          </mxGeometry>
        </mxCell>
        <mxCell id="ZiqQ36OBosInyVJzoxoW-58" value="" style="endArrow=open;endFill=1;endSize=12;html=1;rounded=0;exitX=0.706;exitY=1.038;exitDx=0;exitDy=0;exitPerimeter=0;entryX=0.5;entryY=0;entryDx=0;entryDy=0;" edge="1" parent="1" source="ZiqQ36OBosInyVJzoxoW-34" target="ZiqQ36OBosInyVJzoxoW-39">
          <mxGeometry width="160" relative="1" as="geometry">
            <mxPoint x="270" y="730" as="sourcePoint" />
            <mxPoint x="200" y="800" as="targetPoint" />
          </mxGeometry>
        </mxCell>
      </root>
    </mxGraphModel>
  </diagram>
</mxfile>
